<svg width="292" height="292" viewBox="0 0 292 292" fill="none" xmlns="http://www.w3.org/2000/svg">
<rect width="292" height="292" fill="#006EFF"/>
<path d="M193.619 138.86C193.622 137.765 193.367 136.683 192.871 135.696C192.376 134.708 191.653 133.839 190.758 133.155L160.327 109.856L159.846 106.166C159.655 104.506 159.348 102.86 158.927 101.239C157.618 95.5667 154.838 90.2992 150.844 85.919C146.667 81.5305 141.613 79.6753 136.892 80.7325C132.172 81.7898 128.538 85.5998 126.888 91.4246C125.383 97.0324 125.383 102.912 126.888 108.52C127.264 110.058 127.745 111.571 128.329 113.048L102.138 133.155C101.347 133.749 100.687 134.487 100.196 135.326C99.7044 136.165 99.392 137.088 99.2764 138.043C99.0876 139.627 99.4549 141.227 100.321 142.591L100.968 143.369L101.553 144.067C102.965 145.353 104.844 146.068 106.795 146.062H110.492V182.746C110.498 185.015 111.443 187.191 113.121 188.798C114.8 190.405 117.076 191.313 119.452 191.323H173.193C175.571 191.313 177.849 190.406 179.531 188.799C181.213 187.193 182.163 185.017 182.174 182.746V146.062H185.87C186.874 146.075 187.871 145.899 188.804 145.544C189.737 145.189 190.587 144.663 191.307 143.994C192.026 143.325 192.601 142.528 192.998 141.647C193.394 140.766 193.606 139.819 193.619 138.86ZM140.38 103.872L135.514 107.602C135.514 107.283 135.368 106.964 135.263 106.605C134.571 103.931 134.262 101.18 134.344 98.4262C134.344 98.0672 134.344 97.8079 134.344 97.6683C134.443 96.3521 134.681 95.0488 135.054 93.7784C135.869 90.9857 137.143 89.1904 138.814 88.8114C139.036 88.7909 139.26 88.7909 139.482 88.8114C141.489 89.089 143.299 90.1146 144.516 91.6639C147.428 94.9013 149.464 98.7711 150.448 102.934C148.842 102.188 147.052 101.88 145.275 102.046C143.499 102.211 141.804 102.843 140.38 103.872Z" fill="#343434"/>
<path d="M143.722 167.318H132.694V156.965H143.806V167.318H143.722ZM143.722 141.187H132.694V151.539H143.806V141.187H143.722ZM160.264 156.965H149.153V167.318H160.243V156.965H160.264ZM160.264 141.187H149.153V151.539H160.243V141.187H160.264Z" fill="white"/>
<path d="M190.757 127.702L160.326 104.463L159.846 100.712C159.655 99.0523 159.348 97.4063 158.927 95.7853C157.614 90.1203 154.835 84.8599 150.844 80.4854C146.666 76.0969 141.612 74.2417 136.892 75.2989C132.171 76.3562 128.516 80.1662 126.887 85.991C125.382 91.5988 125.382 97.4784 126.887 103.086C127.324 104.629 127.868 106.141 128.516 107.614L102.137 127.702C100.695 128.803 99.7206 130.366 99.3941 132.101C99.0676 133.836 99.4115 135.626 100.362 137.137L101.009 137.915L101.594 138.613C103.006 139.899 104.885 140.614 106.836 140.608H110.533V177.372C110.539 179.642 111.484 181.817 113.163 183.424C114.841 185.031 117.117 185.939 119.494 185.949H173.234C175.612 185.939 177.89 185.032 179.572 183.425C181.254 181.819 182.204 179.643 182.215 177.372V140.688H185.912C187.492 140.685 189.033 140.215 190.322 139.341C191.611 138.467 192.585 137.234 193.11 135.81C193.634 134.386 193.683 132.841 193.251 131.389C192.818 129.937 191.988 128.649 190.757 127.702ZM134.385 92.1748C134.484 90.8586 134.722 89.5553 135.095 88.285C135.91 85.4923 137.184 83.697 138.855 83.318C139.077 83.2974 139.301 83.2974 139.523 83.318C141.53 83.5955 143.34 84.6212 144.557 86.1705C147.469 89.4079 149.505 93.2776 150.489 97.441C148.855 96.7129 147.041 96.4354 145.251 96.6399C143.461 96.8443 141.767 97.5225 140.359 98.598L135.492 102.328C135.492 102.009 135.346 101.69 135.242 101.331C134.549 98.6569 134.24 95.9056 134.323 93.1522C134.323 92.7932 134.323 92.5338 134.323 92.3942L134.385 92.1748ZM177.996 132.529C176.88 132.56 175.821 133.004 175.041 133.767C174.262 134.53 173.823 135.553 173.818 136.618V177.392C173.818 177.498 173.774 177.599 173.696 177.674C173.618 177.749 173.511 177.791 173.401 177.791H119.577C119.52 177.793 119.464 177.785 119.411 177.766C119.358 177.747 119.309 177.718 119.268 177.681C119.227 177.644 119.194 177.599 119.172 177.549C119.15 177.499 119.138 177.446 119.138 177.392V136.599C119.107 135.55 118.657 134.553 117.88 133.811C117.103 133.069 116.059 132.639 114.961 132.609H109.719L132.401 115.175C133.216 116.325 134.116 117.419 135.095 118.446C135.826 119.206 136.615 119.913 137.456 120.56L137.685 120.74V120.9C137.685 121.019 137.685 121.199 137.685 121.418C137.685 121.638 137.685 121.698 137.685 121.857C137.685 122.017 137.685 122.296 137.852 122.555C137.944 122.893 138.056 123.226 138.187 123.553C138.728 124.846 139.597 125.99 140.715 126.884C141.833 127.778 143.166 128.392 144.594 128.673C146.022 128.954 147.501 128.892 148.898 128.492C150.295 128.093 151.566 127.369 152.598 126.385C154.153 124.891 155.064 122.894 155.153 120.789C155.241 118.684 154.5 116.624 153.075 115.016C151.651 113.407 149.647 112.367 147.459 112.101C145.271 111.835 143.058 112.362 141.257 113.579C140.331 112.54 139.492 111.433 138.751 110.267L145.706 104.921C145.898 104.765 146.142 104.68 146.395 104.68C146.647 104.68 146.892 104.765 147.084 104.921L183.322 132.629L177.996 132.529Z" fill="white"/>
</svg>
