<svg xmlns="http://www.w3.org/2000/svg" width="825" height="843" viewBox="0 0 825 843">
  <g id="Group_294" data-name="Group 294" transform="translate(-72 -1254)">
    <g id="Ellipse_30" data-name="Ellipse 30" transform="translate(100 1299)" fill="#fff" stroke="#ca51ff" stroke-width="8" opacity="0.3">
      <circle cx="380" cy="380" r="380" stroke="none"/>
      <circle cx="380" cy="380" r="376" fill="none"/>
    </g>
    <g id="Ellipse_31" data-name="Ellipse 31" transform="translate(199 1398)" fill="#fff" stroke="#4c76ff" stroke-width="8" opacity="0.3">
      <circle cx="281.5" cy="281.5" r="281.5" stroke="none"/>
      <circle cx="281.5" cy="281.5" r="277.5" fill="none"/>
    </g>
    <g id="Ellipse_32" data-name="Ellipse 32" transform="translate(292 1498)" fill="#fff" stroke="#ca51ff" stroke-width="8" opacity="0.3">
      <circle cx="189" cy="189" r="189" stroke="none"/>
      <circle cx="189" cy="189" r="185" fill="none"/>
    </g>
    <circle id="Ellipse_33" data-name="Ellipse 33" cx="45" cy="45" r="45" transform="translate(445 2007)" fill="#fff"/>
    <circle id="Ellipse_38" data-name="Ellipse 38" cx="45" cy="45" r="45" transform="translate(427 1254)" fill="#fff"/>
    <circle id="Ellipse_34" data-name="Ellipse 34" cx="32" cy="32" r="32" transform="translate(529 1802)" fill="#fff"/>
    <circle id="Ellipse_39" data-name="Ellipse 39" cx="32" cy="32" r="32" transform="translate(288 1701)" fill="#fff"/>
    <circle id="Ellipse_40" data-name="Ellipse 40" cx="32" cy="32" r="32" transform="translate(561 1513)" fill="#fff"/>
    <circle id="Ellipse_41" data-name="Ellipse 41" cx="32" cy="32" r="32" transform="translate(326 1398)" fill="#fff"/>
    <circle id="Ellipse_42" data-name="Ellipse 42" cx="37" cy="37" r="37" transform="translate(172 1720)" fill="#fff"/>
    <circle id="Ellipse_35" data-name="Ellipse 35" cx="45" cy="45" r="45" transform="translate(712 1712)" fill="#fff"/>
    <circle id="Ellipse_36" data-name="Ellipse 36" cx="45" cy="45" r="45" transform="translate(807 1561)" fill="#fff"/>
    <circle id="Ellipse_37" data-name="Ellipse 37" cx="45" cy="45" r="45" transform="translate(72 1561)" fill="#fff"/>
  </g>
</svg>
