<svg xmlns="http://www.w3.org/2000/svg" xmlns:xlink="http://www.w3.org/1999/xlink" width="671.998" height="898.521" viewBox="0 0 671.998 898.521">
  <defs>
    <linearGradient id="linear-gradient" x1="0.5" x2="0.5" y2="1" gradientUnits="objectBoundingBox">
      <stop offset="0" stop-color="#00f260"/>
      <stop offset="1" stop-color="#0575e6"/>
    </linearGradient>
    <linearGradient id="linear-gradient-2" x1="0.986" y1="0.023" x2="0" xlink:href="#linear-gradient"/>
    <clipPath id="clip-path">
      <rect id="Rectangle_13" data-name="Rectangle 13" width="74.208" height="165.805" fill="none"/>
    </clipPath>
    <linearGradient id="linear-gradient-3" x2="0.017" xlink:href="#linear-gradient"/>
    <linearGradient id="linear-gradient-4" x1="0" y1="1" x2="1" y2="0" xlink:href="#linear-gradient"/>
    <linearGradient id="linear-gradient-10" x1="1" y1="0.007" x2="0" y2="0.998" xlink:href="#linear-gradient"/>
    <filter id="Rectangle_12" x="0" y="309.983" width="361.996" height="279.1" filterUnits="userSpaceOnUse">
      <feOffset input="SourceAlpha"/>
      <feGaussianBlur stdDeviation="25" result="blur"/>
      <feFlood flood-opacity="0.161"/>
      <feComposite operator="in" in2="blur"/>
      <feComposite in="SourceGraphic"/>
    </filter>
  </defs>
  <g id="Group_226" data-name="Group 226" transform="translate(-996.002 -131.727)">
    <g id="Group_172" data-name="Group 172">
      <rect id="Rectangle_6" data-name="Rectangle 6" width="370.623" height="802.521" rx="40" transform="translate(1249.377 179.727)" fill="#d8d8d8" style="mix-blend-mode: multiply;isolation: isolate"/>
      <g id="Group_48" data-name="Group 48" transform="translate(-1174.692 1238)">
        <rect id="Rectangle_8" data-name="Rectangle 8" width="370.623" height="802.521" rx="20" transform="translate(2424.069 -1058)" fill="#fff"/>
        <rect id="Rectangle_9" data-name="Rectangle 9" width="370.623" height="358.532" rx="15" transform="translate(2424.069 -614.011)" fill="#f3f3f3"/>
        <g id="Group_4" data-name="Group 4" transform="translate(2453.719 -1028.35)">
          <g id="Group_3" data-name="Group 3" transform="translate(0 8.653)">
            <line id="Line_1" data-name="Line 1" x2="24.966" transform="translate(0 19.223)" fill="none" stroke="#222253" stroke-miterlimit="10" stroke-width="2"/>
            <line id="Line_2" data-name="Line 2" x2="16.601" transform="translate(0 9.612)" fill="none" stroke="#222253" stroke-miterlimit="10" stroke-width="2"/>
            <line id="Line_3" data-name="Line 3" x2="24.966" fill="none" stroke="#222253" stroke-miterlimit="10" stroke-width="2"/>
          </g>
          <rect id="Rectangle_10" data-name="Rectangle 10" width="36.53" height="36.53" rx="5" transform="translate(274.793 0)" fill="url(#linear-gradient)"/>
          <path id="Path_3" data-name="Path 3" d="M261.986,311a10.551,10.551,0,0,0-8.137,17.274l.008.016a10.555,10.555,0,0,0,3.987,2.975l.052.023c.124.052.249.1.374.147.05.019.1.038.149.056.107.039.216.076.326.111.069.022.14.045.211.065.1.029.193.057.291.083s.173.045.26.065.175.042.264.061.2.039.3.058c.082.015.16.03.242.043.11.018.222.031.334.046l.216.027c.126.014.254.023.383.031l.178.015c.186.01.375.015.565.015s.38-.005.568-.015c.06,0,.118-.009.178-.014.128-.01.255-.019.382-.031.073-.008.145-.019.217-.029.111-.014.223-.029.334-.046.08-.012.16-.029.241-.043.1-.018.2-.037.3-.057s.177-.041.264-.061.174-.042.26-.065.2-.054.292-.083l.211-.067q.163-.053.326-.11l.148-.056c.126-.048.25-.1.374-.148l.053-.022a10.579,10.579,0,0,0,3.986-2.975l.008-.018A10.551,10.551,0,0,0,261.986,311Zm2.106,10.984a3.634,3.634,0,0,1-.431.242l-.053.024a3.958,3.958,0,0,1-3.244,0l-.053-.024a3.637,3.637,0,0,1-.431-.242,3.871,3.871,0,1,1,4.211,0Zm-4.342.743.088.05c.1.056.211.107.319.155.084.037.17.067.255.1l.052.018a4.478,4.478,0,0,0,3.043,0l.05-.018c.087-.033.173-.063.255-.1.109-.048.216-.1.321-.155l.088-.05c.05-.027.1-.054.151-.084a7.764,7.764,0,0,1,5.082,5.327,9.91,9.91,0,0,1-3.192,2.461l-.015.007c-.125.061-.253.118-.382.174l-.087.037q-.169.071-.342.135c-.048.019-.1.037-.144.053-.1.037-.2.071-.306.1-.064.02-.129.039-.193.058l-.276.079-.236.058c-.083.019-.164.039-.249.057s-.182.035-.275.052c-.073.014-.148.029-.223.041-.1.016-.207.029-.311.042l-.2.026c-.12.012-.239.02-.357.029-.054,0-.106.009-.16.012-.174.01-.349.015-.525.015s-.349-.005-.523-.015c-.053,0-.106-.008-.159-.012-.12-.008-.239-.016-.357-.029l-.2-.026c-.1-.014-.208-.026-.311-.042-.075-.012-.148-.027-.223-.041-.092-.016-.183-.033-.275-.052s-.166-.038-.249-.057-.158-.038-.235-.058l-.277-.079-.193-.058c-.1-.034-.205-.068-.306-.1l-.144-.053c-.116-.042-.23-.087-.341-.135l-.087-.037c-.129-.056-.257-.113-.383-.173l-.015-.008a9.891,9.891,0,0,1-3.192-2.461,7.764,7.764,0,0,1,5.082-5.327C259.649,322.674,259.7,322.7,259.751,322.729Zm10.234,4.573a8.482,8.482,0,0,0-4.943-5.164,4.576,4.576,0,1,0-6.11,0,8.484,8.484,0,0,0-4.944,5.164,9.853,9.853,0,1,1,16,0Z" transform="translate(31.071 -303.293)" fill="#fff"/>
        </g>
        <g id="Group_6" data-name="Group 6" transform="translate(2437.284 -901.056)">
          <rect id="Rectangle_11" data-name="Rectangle 11" width="275.867" height="167.151" transform="translate(0)" fill="url(#linear-gradient-2)"/>
          <g id="Group_5" data-name="Group 5" transform="translate(202.074 99.289)">
            <circle id="Ellipse_1" data-name="Ellipse 1" cx="14.669" cy="14.669" r="14.669" fill="#ea001b"/>
            <circle id="Ellipse_2" data-name="Ellipse 2" cx="14.669" cy="14.669" r="14.669" transform="translate(21.613)" fill="#f79f1a"/>
          </g>
          <text id="Card_Name" data-name="Card Name" transform="translate(248.384 143.742)" fill="#fff" font-size="9" font-family="SegoeUI, Segoe UI" letter-spacing="0.03em"><tspan x="-46.975" y="0">Card Name</tspan></text>
          <text id="_1478_2255_4595_9874" data-name="1478 2255 4595 9874" transform="translate(22.592 64.37)" fill="#fff" font-size="11" font-family="Poppins-Regular, Poppins" letter-spacing="0.06em"><tspan x="0" y="0">1478 2255 4595 9874</tspan></text>
          <text id="Eler_Minton" data-name="Eler Minton" transform="translate(22.592 144.776)" fill="#fff" font-size="11" font-family="Poppins-Bold, Poppins" font-weight="700" letter-spacing="0.03em"><tspan x="0" y="0">Eler Minton</tspan></text>
          <text id="Card_Holder" data-name="Card Holder" transform="translate(22.592 127.528)" fill="#fff" font-size="9" font-family="Poppins-Light, Poppins" font-weight="300" letter-spacing="0.03em"><tspan x="0" y="0">Card Holder</tspan></text>
          <text id="_12_24" data-name="12/24" transform="translate(250.563 28.565)" fill="#fff" font-size="9" font-family="Poppins-Light, Poppins" font-weight="300" letter-spacing="0.03em"><tspan x="-23.49" y="0">12/24</tspan></text>
        </g>
        <g id="Group_10" data-name="Group 10" transform="translate(2720.483 -900.666)">
          <g id="Group_9" data-name="Group 9" clip-path="url(#clip-path)">
            <g id="Group_8" data-name="Group 8" transform="translate(15.77 18.636)">
              <rect id="Rectangle_12-2" data-name="Rectangle 12" width="211.996" height="129.1" fill="url(#linear-gradient-3)"/>
              <g id="Group_7" data-name="Group 7" transform="translate(155.764 76.537)">
                <circle id="Ellipse_3" data-name="Ellipse 3" cx="11.251" cy="11.251" r="11.251" fill="#ea001b"/>
                <circle id="Ellipse_4" data-name="Ellipse 4" cx="11.251" cy="11.251" r="11.251" transform="translate(16.577)" fill="#f79f1a"/>
                <path id="Path_4" data-name="Path 4" d="M384.2,479.608a11.224,11.224,0,0,1-2.957,7.606,11.234,11.234,0,0,1,0-15.212A11.229,11.229,0,0,1,384.2,479.608Z" transform="translate(-361.697 -468.358)" fill="#ff5f01"/>
              </g>
              <text id="Mastercard" transform="translate(186.432 109.147)" fill="#fff" font-size="6" font-family="SegoeUI, Segoe UI" letter-spacing="0.03em"><tspan x="-31.307" y="0">Mastercard</tspan></text>
              <text id="_1478_2255_4595_9874-2" data-name="1478 2255 4595 9874" transform="translate(18.101 49.418)" fill="#fff" font-size="9" font-family="Poppins-Regular, Poppins" letter-spacing="0.06em"><tspan x="0" y="0">1478 2255 4595 9874</tspan></text>
              <text id="Goutam_Das" data-name="Goutam Das" transform="translate(18.101 111.09)" fill="#fff" font-size="9" font-family="Poppins-Bold, Poppins" font-weight="700" letter-spacing="0.03em"><tspan x="0" y="0">Goutam Das</tspan></text>
              <text id="Card_Holder-2" data-name="Card Holder" transform="translate(18.101 98.478)" fill="#fff" font-size="7" font-family="Poppins-Light, Poppins" font-weight="300" letter-spacing="0.03em"><tspan x="0" y="0">Card Holder</tspan></text>
            </g>
          </g>
        </g>
        <g id="Group_11" data-name="Group 11" transform="translate(2517.065 -699.238)">
          <rect id="Rectangle_14" data-name="Rectangle 14" width="184.631" height="49.604" rx="18.251" transform="translate(0)" fill="url(#linear-gradient-4)"/>
          <rect id="Rectangle_15" data-name="Rectangle 15" width="88.632" height="42.591" rx="15.671" transform="translate(3.683 3.507)" fill="#0f0f1e"/>
          <text id="Debit" transform="translate(46.538 30.582)" fill="#fff" font-size="16" font-family="Poppins-Bold, Poppins" font-weight="700" letter-spacing="0.03em"><tspan x="-22.744" y="0">Debit</tspan></text>
          <text id="Credit" transform="translate(135.424 30.582)" fill="#fff" font-size="16" font-family="Poppins-Bold, Poppins" font-weight="700" letter-spacing="0.03em"><tspan x="-26.688" y="0">Credit</tspan></text>
        </g>
        <g id="Group_14" data-name="Group 14" transform="translate(2453.719 -584.361)">
          <rect id="Rectangle_16" data-name="Rectangle 16" width="36.53" height="36.53" rx="5" transform="translate(0)" fill="url(#linear-gradient)"/>
          <g id="Group_12" data-name="Group 12" transform="translate(13.461 11.236)">
            <path id="Path_5" data-name="Path 5" d="M58.316,654.369c-2.748,0-4.862-1.5-4.862-3.934h2.411a2.205,2.205,0,0,0,2.452,2.037c1.582,0,2.472-.851,2.472-2.018,0-3.32-7.295-1.165-7.295-6.227,0-2.412,1.917-3.915,4.725-3.915,2.63,0,4.487,1.385,4.686,3.737H60.413a2.15,2.15,0,0,0-2.313-1.818c-1.306-.039-2.314.592-2.314,1.917,0,3.1,7.276,1.167,7.276,6.189C63.062,652.393,61.382,654.369,58.316,654.369Z" transform="translate(-53.454 -640.312)" fill="#fff"/>
          </g>
          <g id="Group_13" data-name="Group 13" transform="translate(51.373 0.984)">
            <text id="Shoping_Mart" data-name="Shoping Mart" transform="translate(0 14)" fill="#222253" font-size="13" font-family="Poppins-Bold, Poppins" font-weight="700" letter-spacing="0.03em"><tspan x="0" y="0">Shoping Mart</tspan></text>
            <text id="Grocery_Shoping" data-name="Grocery Shoping" transform="translate(0 28.908)" fill="#aeaeb3" font-size="9" font-family="Poppins-Light, Poppins" font-weight="300" letter-spacing="0.03em"><tspan x="0" y="0">Grocery Shoping</tspan></text>
          </g>
          <text id="_-_250" data-name="-$250" transform="translate(311.195 25.345)" fill="#e84a38" font-size="14" font-family="Poppins-Regular, Poppins" letter-spacing="0.03em"><tspan x="-43.736" y="0">-$250</tspan></text>
        </g>
        <g id="Group_17" data-name="Group 17" transform="translate(2453.719 -518.986)">
          <rect id="Rectangle_17" data-name="Rectangle 17" width="36.53" height="36.53" rx="5" transform="translate(0)" fill="url(#linear-gradient)"/>
          <g id="Group_15" data-name="Group 15" transform="translate(13.461 11.236)">
            <path id="Path_6" data-name="Path 6" d="M58.316,702.476c-2.748,0-4.862-1.5-4.862-3.934h2.411a2.205,2.205,0,0,0,2.452,2.037c1.582,0,2.472-.851,2.472-2.017,0-3.321-7.295-1.166-7.295-6.228,0-2.412,1.917-3.915,4.725-3.915,2.63,0,4.487,1.385,4.686,3.737H60.413a2.151,2.151,0,0,0-2.313-1.818c-1.306-.039-2.314.593-2.314,1.917,0,3.1,7.276,1.167,7.276,6.189C63.062,700.5,61.382,702.476,58.316,702.476Z" transform="translate(-53.454 -688.419)" fill="#fff"/>
          </g>
          <g id="Group_16" data-name="Group 16" transform="translate(51.373 0.983)">
            <text id="Shoping_Mart-2" data-name="Shoping Mart" transform="translate(0 14)" fill="#222253" font-size="13" font-family="Poppins-Bold, Poppins" font-weight="700" letter-spacing="0.03em"><tspan x="0" y="0">Shoping Mart</tspan></text>
            <text id="Grocery_Shoping-2" data-name="Grocery Shoping" transform="translate(0 28.909)" fill="#aeaeb3" font-size="9" font-family="Poppins-Light, Poppins" font-weight="300" letter-spacing="0.03em"><tspan x="0" y="0">Grocery Shoping</tspan></text>
          </g>
          <text id="_-_250-2" data-name="-$250" transform="translate(311.195 25.346)" fill="#e84a38" font-size="14" font-family="Poppins-Regular, Poppins" letter-spacing="0.03em"><tspan x="-43.736" y="0">-$250</tspan></text>
        </g>
        <g id="Group_20" data-name="Group 20" transform="translate(2453.719 -453.61)">
          <rect id="Rectangle_18" data-name="Rectangle 18" width="36.53" height="36.53" rx="5" transform="translate(0)" fill="url(#linear-gradient)"/>
          <g id="Group_18" data-name="Group 18" transform="translate(13.461 11.237)">
            <path id="Path_7" data-name="Path 7" d="M58.316,750.584c-2.748,0-4.862-1.5-4.862-3.934h2.411a2.205,2.205,0,0,0,2.452,2.036c1.582,0,2.472-.849,2.472-2.017,0-3.321-7.295-1.166-7.295-6.227,0-2.412,1.917-3.915,4.725-3.915,2.63,0,4.487,1.383,4.686,3.737H60.413a2.151,2.151,0,0,0-2.313-1.82c-1.306-.039-2.314.594-2.314,1.917,0,3.1,7.276,1.167,7.276,6.189C63.062,748.607,61.382,750.584,58.316,750.584Z" transform="translate(-53.454 -736.527)" fill="#fff"/>
          </g>
          <g id="Group_19" data-name="Group 19" transform="translate(51.373 0.983)">
            <text id="Shoping_Mart-3" data-name="Shoping Mart" transform="translate(0 14)" fill="#222253" font-size="13" font-family="Poppins-Bold, Poppins" font-weight="700" letter-spacing="0.03em"><tspan x="0" y="0">Shoping Mart</tspan></text>
            <text id="Grocery_Shoping-3" data-name="Grocery Shoping" transform="translate(0 28.909)" fill="#aeaeb3" font-size="9" font-family="Poppins-Light, Poppins" font-weight="300" letter-spacing="0.03em"><tspan x="0" y="0">Grocery Shoping</tspan></text>
          </g>
          <text id="_-_250-3" data-name="-$250" transform="translate(311.195 25.346)" fill="#e84a38" font-size="14" font-family="Poppins-Regular, Poppins" letter-spacing="0.03em"><tspan x="-43.736" y="0">-$250</tspan></text>
        </g>
        <g id="Group_23" data-name="Group 23" transform="translate(2453.719 -388.235)">
          <rect id="Rectangle_19" data-name="Rectangle 19" width="36.53" height="36.53" rx="5" transform="translate(0)" fill="url(#linear-gradient)"/>
          <g id="Group_21" data-name="Group 21" transform="translate(13.461 11.236)">
            <path id="Path_8" data-name="Path 8" d="M58.316,798.691c-2.748,0-4.862-1.5-4.862-3.934h2.411a2.205,2.205,0,0,0,2.452,2.037c1.582,0,2.472-.851,2.472-2.017,0-3.321-7.295-1.166-7.295-6.228,0-2.412,1.917-3.915,4.725-3.915,2.63,0,4.487,1.385,4.686,3.737H60.413a2.151,2.151,0,0,0-2.313-1.818c-1.306-.039-2.314.593-2.314,1.917,0,3.1,7.276,1.167,7.276,6.189C63.062,796.715,61.382,798.691,58.316,798.691Z" transform="translate(-53.454 -784.634)" fill="#fff"/>
          </g>
          <g id="Group_22" data-name="Group 22" transform="translate(51.373 0.983)">
            <text id="Shoping_Mart-4" data-name="Shoping Mart" transform="translate(0 14)" fill="#222253" font-size="13" font-family="Poppins-Bold, Poppins" font-weight="700" letter-spacing="0.03em"><tspan x="0" y="0">Shoping Mart</tspan></text>
            <text id="Grocery_Shoping-4" data-name="Grocery Shoping" transform="translate(0 28.909)" fill="#aeaeb3" font-size="9" font-family="Poppins-Light, Poppins" font-weight="300" letter-spacing="0.03em"><tspan x="0" y="0">Grocery Shoping</tspan></text>
          </g>
          <text id="_-_250-4" data-name="-$250" transform="translate(311.195 25.345)" fill="#e84a38" font-size="14" font-family="Poppins-Regular, Poppins" letter-spacing="0.03em"><tspan x="-43.736" y="0">-$250</tspan></text>
        </g>
        <g id="Group_26" data-name="Group 26" transform="translate(2453.719 -322.859)">
          <rect id="Rectangle_20" data-name="Rectangle 20" width="36.53" height="36.53" rx="5" transform="translate(0)" fill="url(#linear-gradient)"/>
          <g id="Group_24" data-name="Group 24" transform="translate(13.461 11.237)">
            <path id="Path_9" data-name="Path 9" d="M58.316,846.8c-2.748,0-4.862-1.5-4.862-3.934h2.411a2.205,2.205,0,0,0,2.452,2.036c1.582,0,2.472-.849,2.472-2.017,0-3.321-7.295-1.166-7.295-6.227,0-2.412,1.917-3.915,4.725-3.915,2.63,0,4.487,1.383,4.686,3.737H60.413a2.151,2.151,0,0,0-2.313-1.82c-1.306-.039-2.314.594-2.314,1.917,0,3.105,7.276,1.167,7.276,6.189C63.062,844.822,61.382,846.8,58.316,846.8Z" transform="translate(-53.454 -832.742)" fill="#fff"/>
          </g>
          <g id="Group_25" data-name="Group 25" transform="translate(51.373 0.983)">
            <text id="Shoping_Mart-5" data-name="Shoping Mart" transform="translate(0 14)" fill="#222253" font-size="13" font-family="Poppins-Bold, Poppins" font-weight="700" letter-spacing="0.03em"><tspan x="0" y="0">Shoping Mart</tspan></text>
            <text id="Grocery_Shoping-5" data-name="Grocery Shoping" transform="translate(0 28.909)" fill="#aeaeb3" font-size="9" font-family="Poppins-Light, Poppins" font-weight="300" letter-spacing="0.03em"><tspan x="0" y="0">Grocery Shoping</tspan></text>
          </g>
          <text id="_-_250-5" data-name="-$250" transform="translate(311.195 25.345)" fill="#e84a38" font-size="14" font-family="Poppins-Regular, Poppins" letter-spacing="0.03em"><tspan x="-43.736" y="0">-$250</tspan></text>
        </g>
        <text id="Total_Balance_3_851.59" data-name="Total Balance
$ 3,851.59" transform="translate(2606.337 -963.183)" fill="#aeaeb3" font-size="10" font-family="Poppins-Light, Poppins" font-weight="300" letter-spacing="0.03em"><tspan x="-35.5" y="0">Total Balance</tspan><tspan fill="#222253" font-size="21" font-family="Poppins-Bold, Poppins" font-weight="700"><tspan x="-55.157" y="20">$ 3,851.59</tspan></tspan></text>
      </g>
    </g>
    <g id="Group_8-2" data-name="Group 8" transform="translate(1071.002 516.711)">
      <g transform="matrix(1, 0, 0, 1, -75, -384.98)" filter="url(#Rectangle_12)">
        <rect id="Rectangle_12-3" data-name="Rectangle 12" width="211.996" height="129.1" rx="5" transform="translate(75 384.98)" fill="url(#linear-gradient-10)"/>
      </g>
      <g id="Group_7-2" data-name="Group 7" transform="translate(155.764 76.537)">
        <circle id="Ellipse_3-2" data-name="Ellipse 3" cx="11.251" cy="11.251" r="11.251" fill="#ea001b"/>
        <circle id="Ellipse_4-2" data-name="Ellipse 4" cx="11.251" cy="11.251" r="11.251" transform="translate(16.577)" fill="#f79f1a"/>
        <path id="Path_4-2" data-name="Path 4" d="M384.2,479.608a11.224,11.224,0,0,1-2.957,7.606,11.234,11.234,0,0,1,0-15.212A11.229,11.229,0,0,1,384.2,479.608Z" transform="translate(-361.697 -468.358)" fill="#ff5f01"/>
      </g>
      <text id="Mastercard-2" data-name="Mastercard" transform="translate(186.432 109.147)" fill="#fff" font-size="6" font-family="SegoeUI, Segoe UI" letter-spacing="0.03em"><tspan x="-31.307" y="0">Mastercard</tspan></text>
      <text id="_1478_2255_4595_9874-3" data-name="1478 2255 4595 9874" transform="translate(18.101 49.418)" fill="#fff" font-size="9" font-family="Poppins-Regular, Poppins" letter-spacing="0.06em"><tspan x="0" y="0">1478 2255 4595 9874</tspan></text>
      <text id="Goutam_Das-2" data-name="Goutam Das" transform="translate(18.101 111.09)" fill="#fff" font-size="9" font-family="Poppins-Bold, Poppins" font-weight="700" letter-spacing="0.03em"><tspan x="0" y="0">Goutam Das</tspan></text>
      <text id="Card_Holder-3" data-name="Card Holder" transform="translate(18.101 98.478)" fill="#fff" font-size="7" font-family="Poppins-Light, Poppins" font-weight="300" letter-spacing="0.03em"><tspan x="0" y="0">Card Holder</tspan></text>
    </g>
  </g>
</svg>
